<?xml version="1.0" encoding="UTF-8" standalone="no"?>
<!DOCTYPE svg PUBLIC "-//W3C//DTD SVG 1.1//EN" "http://www.w3.org/Graphics/SVG/1.1/DTD/svg11.dtd">
<!-- Created with Vectornator (http://vectornator.io/) -->
<svg height="100%" stroke-miterlimit="10" style="fill-rule:nonzero;clip-rule:evenodd;stroke-linecap:round;stroke-linejoin:round;" version="1.1" viewBox="0 0 4000 4000" width="100%" xml:space="preserve" xmlns="http://www.w3.org/2000/svg" xmlns:vectornator="http://vectornator.io" xmlns:xlink="http://www.w3.org/1999/xlink">
<defs>
<path d="M1073.28 1107.13C1073.28 1029.81 1135.96 967.128 1213.28 967.128L2786.72 967.128C2864.04 967.128 2926.72 1029.81 2926.72 1107.13L2926.72 2680.57C2926.72 2757.89 2864.04 2820.57 2786.72 2820.57L1213.28 2820.57C1135.96 2820.57 1073.28 2757.89 1073.28 2680.57L1073.28 1107.13Z" id="Fill"/>
</defs>
<g id="图层-1" vectornator:layerName="图层 1">
<g opacity="1" vectornator:layerName="长方形 1">
<use fill="#5f5f5f" fill-rule="nonzero" stroke="none" xlink:href="#Fill"/>
<mask height="2453.44" id="StrokeMask" maskUnits="userSpaceOnUse" width="2453.44" x="773.281" y="667.128">
<rect fill="#ffffff" height="2453.44" stroke="none" width="2453.44" x="773.281" y="667.128"/>
<use fill="#000000" fill-rule="evenodd" stroke="none" xlink:href="#Fill"/>
</mask>
<use fill="none" mask="url(#StrokeMask)" stroke="#757575" stroke-linecap="butt" stroke-linejoin="round" stroke-width="600" xlink:href="#Fill"/>
</g>
</g>
<g id="图层-2" vectornator:layerName="图层 2">
<path d="M1320.44 1365.98C1320.44 1282.2 1388.36 1214.29 1472.13 1214.29L2527.87 1214.29C2611.64 1214.29 2679.56 1282.2 2679.56 1365.98L2679.56 2421.71C2679.56 2505.49 2611.64 2573.41 2527.87 2573.41L1472.13 2573.41C1388.36 2573.41 1320.44 2505.49 1320.44 2421.71L1320.44 1365.98Z" fill="#434343" fill-rule="nonzero" opacity="1" stroke="none" vectornator:layerName="长方形 1"/>
</g>
<g id="图层-2-复制" vectornator:layerName="图层 2 复制">
<path d="M1582.27 1569.37C1582.27 1517.87 1624.02 1476.12 1675.52 1476.12L2324.48 1476.12C2375.98 1476.12 2417.73 1517.87 2417.73 1569.37L2417.73 2218.33C2417.73 2269.83 2375.98 2311.57 2324.48 2311.57L1675.52 2311.57C1624.02 2311.57 1582.27 2269.83 1582.27 2218.33L1582.27 1569.37Z" fill="#303030" fill-rule="nonzero" opacity="1" stroke="none" vectornator:layerName="长方形 1"/>
</g>
</svg>
