<?xml version="1.0" encoding="UTF-8" standalone="no"?>
<!DOCTYPE svg PUBLIC "-//W3C//DTD SVG 1.1//EN" "http://www.w3.org/Graphics/SVG/1.1/DTD/svg11.dtd">
<!-- Created with Vectornator (http://vectornator.io/) -->
<svg height="100%" stroke-miterlimit="10" style="fill-rule:nonzero;clip-rule:evenodd;stroke-linecap:round;stroke-linejoin:round;" version="1.1" viewBox="0 0 4000 4000" width="100%" xml:space="preserve" xmlns="http://www.w3.org/2000/svg" xmlns:vectornator="http://vectornator.io" xmlns:xlink="http://www.w3.org/1999/xlink">
<defs/>
<g id="图层-1" vectornator:layerName="图层 1">
<path d="M2090.06 1266.31C2172.49 1183.87 2300.48 1178.2 2375.93 1253.65L2746.35 1624.07C2821.8 1699.52 2816.13 1827.51 2733.69 1909.94L1909.94 2733.69C1827.51 2816.13 1699.52 2821.8 1624.07 2746.35L1253.65 2375.93C1178.2 2300.48 1183.87 2172.49 1266.31 2090.06L2090.06 1266.31Z" fill="#976325" fill-rule="nonzero" opacity="1" stroke="#724c1f" stroke-linecap="butt" stroke-linejoin="miter" stroke-width="172.119" vectornator:layerName="长方形 1"/>
</g>
<g id="图层-1-复制" vectornator:layerName="图层 1 复制">
<path d="M2623.25 1407.03C2667.56 1362.72 2740.33 1363.65 2785.77 1409.09L3008.92 1632.24C3054.37 1677.69 3055.29 1750.45 3010.98 1794.76L2568.22 2237.52C2523.91 2281.83 2451.14 2280.91 2405.69 2235.46L2182.55 2012.32C2137.1 1966.87 2136.18 1894.11 2180.49 1849.8L2623.25 1407.03Z" fill="#976325" fill-rule="nonzero" opacity="1" stroke="#724c1f" stroke-linecap="butt" stroke-linejoin="miter" stroke-width="172.12" vectornator:layerName="长方形 1"/>
</g>
</svg>
