<?xml version="1.0" encoding="UTF-8" standalone="no"?>
<!DOCTYPE svg PUBLIC "-//W3C//DTD SVG 1.1//EN" "http://www.w3.org/Graphics/SVG/1.1/DTD/svg11.dtd">
<!-- Created with Vectornator (http://vectornator.io/) -->
<svg height="100%" stroke-miterlimit="10" style="fill-rule:nonzero;clip-rule:evenodd;stroke-linecap:round;stroke-linejoin:round;" version="1.1" viewBox="0 0 4000 4000" width="100%" xml:space="preserve" xmlns="http://www.w3.org/2000/svg" xmlns:vectornator="http://vectornator.io" xmlns:xlink="http://www.w3.org/1999/xlink">
<defs>
<path d="M1941.42 1420.42C2019.53 1498.52 2019.53 1625.16 1941.42 1703.26L1786.1 1858.58C1708 1936.68 1581.37 1936.68 1503.26 1858.58L1190.67 1545.99C1112.57 1467.89 1112.57 1341.25 1190.67 1263.15L1345.99 1107.83C1424.1 1029.73 1550.73 1029.73 1628.83 1107.83L1941.42 1420.42Z" id="Fill"/>
<path d="M2454.01 1107.83C2532.11 1029.73 2658.75 1029.73 2736.85 1107.83L2892.17 1263.15C2970.27 1341.25 2970.27 1467.89 2892.17 1545.99L2579.58 1858.58C2501.48 1936.68 2374.84 1936.68 2296.74 1858.58L2141.42 1703.26C2063.32 1625.16 2063.32 1498.52 2141.42 1420.42L2454.01 1107.83Z" id="Fill_2"/>
<path d="M2100 2496.74C2021.9 2418.63 2021.9 2292 2100 2213.9L2255.32 2058.58C2333.42 1980.47 2460.06 1980.47 2538.16 2058.58L2850.75 2371.17C2928.85 2449.27 2928.85 2575.9 2850.75 2654.01L2695.43 2809.33C2617.33 2887.43 2490.69 2887.43 2412.59 2809.33L2100 2496.74Z" id="Fill_3"/>
<path d="M1587.41 2809.33C1509.31 2887.43 1382.67 2887.43 1304.57 2809.33L1149.25 2654.01C1071.15 2575.9 1071.15 2449.27 1149.25 2371.17L1461.84 2058.58C1539.94 1980.47 1666.58 1980.47 1744.68 2058.58L1900 2213.9C1978.1 2292 1978.1 2418.63 1900 2496.74L1587.41 2809.33Z" id="Fill_4"/>
<path d="M1309.3 2000C1309.3 1618.54 1618.54 1309.3 2000 1309.3C2381.46 1309.3 2690.7 1618.54 2690.7 2000C2690.7 2381.46 2381.46 2690.7 2000 2690.7C1618.54 2690.7 1309.3 2381.46 1309.3 2000Z" id="Fill_5"/>
</defs>
<g id="图层-2-复制-复制" vectornator:layerName="图层 2 复制 复制">
<g opacity="1" vectornator:layerName="成组 1">
<g opacity="1" vectornator:layerName="长方形 1">
<use fill="#00c4ff" fill-rule="nonzero" stroke="none" xlink:href="#Fill"/>
<mask height="867.906" id="StrokeMask" maskUnits="userSpaceOnUse" width="867.906" x="1132.09" y="1049.25">
<rect fill="#000000" height="867.906" stroke="none" width="867.906" x="1132.09" y="1049.25"/>
<use fill="#ffffff" fill-rule="evenodd" stroke="none" xlink:href="#Fill"/>
</mask>
<use fill="none" mask="url(#StrokeMask)" stroke="#009ccc" stroke-linecap="butt" stroke-linejoin="miter" stroke-width="373.656" xlink:href="#Fill"/>
</g>
<g opacity="1" vectornator:layerName="长方形 1">
<use fill="#ff0000" fill-rule="nonzero" stroke="none" xlink:href="#Fill_2"/>
<mask height="867.906" id="StrokeMask_2" maskUnits="userSpaceOnUse" width="867.906" x="2082.84" y="1049.25">
<rect fill="#000000" height="867.906" stroke="none" width="867.906" x="2082.84" y="1049.25"/>
<use fill="#ffffff" fill-rule="evenodd" stroke="none" xlink:href="#Fill_2"/>
</mask>
<use fill="none" mask="url(#StrokeMask_2)" stroke="#bf0000" stroke-linecap="butt" stroke-linejoin="miter" stroke-width="373.656" xlink:href="#Fill_2"/>
</g>
</g>
</g>
<g id="图层-2-复制-复制-复制" vectornator:layerName="图层 2 复制 复制 复制">
<g opacity="1" vectornator:layerName="成组 1">
<g opacity="1" vectornator:layerName="长方形 1">
<use fill="#00c4ff" fill-rule="nonzero" stroke="none" xlink:href="#Fill_3"/>
<mask height="867.906" id="StrokeMask_3" maskUnits="userSpaceOnUse" width="867.906" x="2041.42" y="2000">
<rect fill="#000000" height="867.906" stroke="none" width="867.906" x="2041.42" y="2000"/>
<use fill="#ffffff" fill-rule="evenodd" stroke="none" xlink:href="#Fill_3"/>
</mask>
<use fill="none" mask="url(#StrokeMask_3)" stroke="#009ccc" stroke-linecap="butt" stroke-linejoin="miter" stroke-width="373.656" xlink:href="#Fill_3"/>
</g>
<g opacity="1" vectornator:layerName="长方形 1">
<use fill="#ff0000" fill-rule="nonzero" stroke="none" xlink:href="#Fill_4"/>
<mask height="867.906" id="StrokeMask_4" maskUnits="userSpaceOnUse" width="867.906" x="1090.67" y="2000">
<rect fill="#000000" height="867.906" stroke="none" width="867.906" x="1090.67" y="2000"/>
<use fill="#ffffff" fill-rule="evenodd" stroke="none" xlink:href="#Fill_4"/>
</mask>
<use fill="none" mask="url(#StrokeMask_4)" stroke="#bf0000" stroke-linecap="butt" stroke-linejoin="miter" stroke-width="373.656" xlink:href="#Fill_4"/>
</g>
</g>
</g>
<g id="图层-1" vectornator:layerName="图层 1">
<g opacity="1" vectornator:layerName="椭圆 1">
<use fill="#e2fff9" fill-rule="nonzero" stroke="none" xlink:href="#Fill_5"/>
<mask height="1381.4" id="StrokeMask_5" maskUnits="userSpaceOnUse" width="1381.4" x="1309.3" y="1309.3">
<rect fill="#000000" height="1381.4" stroke="none" width="1381.4" x="1309.3" y="1309.3"/>
<use fill="#ffffff" fill-rule="evenodd" stroke="none" xlink:href="#Fill_5"/>
</mask>
<use fill="none" mask="url(#StrokeMask_5)" stroke="#a6d3ca" stroke-linecap="butt" stroke-linejoin="miter" stroke-width="373.656" xlink:href="#Fill_5"/>
</g>
</g>
</svg>
